<?xml version="1.0"?>
<svg width="24" height="24" xmlns="http://www.w3.org/2000/svg" xmlns:svg="http://www.w3.org/2000/svg" data-name="Icon/flash">
 <defs>
  <clipPath id="clip-path">
   <path d="m7.11,22a1,1 0 0 1 -0.99,-1.11l0.77,-7.09l-5.89,0a1,1 0 0 1 -0.83,-1.56l7.89,-11.79a1,1 0 0 1 1.82,0.66l-0.77,7.09l5.89,0a1,1 0 0 1 0.83,1.56l-7.89,11.8a1,1 0 0 1 -0.83,0.44zm0.35,-17.06l-4.59,6.86l5.13,0a1,1 0 0 1 0.99,1.11l-0.45,4.15l4.59,-6.86l-5.13,0a1,1 0 0 1 -0.99,-1.11l0.45,-4.15z" data-name=" Icon 小olor" id="_Icon_小olor" transform="translate(4 1)"/>
  </clipPath>
 </defs>
 <g class="layer">
  <title>Layer 1</title>
  <g data-name="Group 22" id="Group_22">
   <path d="m7.11,22a1,1 0 0 1 -0.99,-1.11l0.77,-7.09l-5.89,0a1,1 0 0 1 -0.83,-1.56l7.89,-11.79a1,1 0 0 1 1.82,0.66l-0.77,7.09l5.89,0a1,1 0 0 1 0.83,1.56l-7.89,11.8a1,1 0 0 1 -0.83,0.44zm0.35,-17.06l-4.59,6.86l5.13,0a1,1 0 0 1 0.99,1.11l-0.45,4.15l4.59,-6.86l-5.13,0a1,1 0 0 1 -0.99,-1.11l0.45,-4.15z" data-name=" Icon 小olor" id="_Icon_小olor-2" transform="translate(4 1)"/>
  </g>
  <rect fill="#000000" height="1.62" id="svg_1" rx="1" ry="1" stroke="#3f3f3f" style="--darkreader-inline-fill: #000000; --darkreader-inline-stroke: #c0bbb3;" transform="rotate(-50 12.5016 11.2258)" width="23.01" x="1" y="10.42"/>
 </g>
</svg>